<mxfile host="app.diagrams.net" modified="2024-04-10T23:11:28.722Z" agent="Mozilla/5.0 (Windows NT 10.0; Win64; x64) AppleWebKit/537.36 (KHTML, like Gecko) Chrome/123.0.0.0 Safari/537.36" version="24.2.1" etag="pNndv4XH-I3o2Z83uL1a" type="github">
  <diagram name="Page-1" id="zOkEtaUX2JTjLpNy-2GN">
    <mxGraphModel>
      <root>
        <mxCell id="0" />
        <mxCell id="1" parent="0" />
      </root>
    </mxGraphModel>
  </diagram>
</mxfile>
